# xmcd
#
# Track frame offsets:
#	150
#	13303
#	29102
#	45113
#	61504
#	74622
#	86525
#	100545
#	112465
#	127830
#	141610
#	157601
#	171646
#	186310
#	199272
#	212638
#	225676
#	240064
#	252082
#	263869
#	275715
#	287127
#	298743
#	311721
#	323444
#	335627
#
# Disc length: 4635 seconds
#
# Revision: 1
# Processed by: cddbd v1.5.1PL0 Copyright (c) Steve Scherf et al.
# Submitted via: EasyCDDAExtractor 7.5.2.1
#
DISCID=8812191a
DTITLE=Various Artist - Masters Of The Memphis Blues (1928-39) - Disc D (Robe
DTITLE=rt Wilkins and Little Buddy Doyle)
DYEAR=2004
DGENRE=Blues
TTITLE0=Robert Wilkins - Rolling Stone, Part 1
TTITLE1=Robert Wilkins - Rolling Stone, Part 2
TTITLE2=Robert Wilkins - Jail House Blues
TTITLE3=Robert Wilkins - I Do Blues
TTITLE4=Robert Wilkins - That's No Way To Get Along
TTITLE5=Robert Wilkins - Alabama Blues
TTITLE6=Robert Wilkins - Long Train Blues
TTITLE7=Robert Wilkins - Falling Down Blues
TTITLE8=Robert Wilkins - Nashville Stonewall Blues
TTITLE9=Robert Wilkins - Police Sergeant Blues
TTITLE10=Robert Wilkins - Get Away Blues
TTITLE11=Robert Wilkins - I'll Go With Her Blues
TTITLE12=Robert Wilkins - Dirty Deal Blues
TTITLE13=Robert Wilkins - Black Rat Blues
TTITLE14=Robert Wilkins - New Stock Yard Blues
TTITLE15=Robert Wilkins - Old Jim Canaan's
TTITLE16=Robert Wilkins - Losin' Out Blues
TTITLE17=Little Buddy Doyle - Hard Scuffin' Blues
TTITLE18=Little Buddy Doyle - Grief Will Kill You
TTITLE19=Little Buddy Doyle - Slick Capers Blues
TTITLE20=Little Buddy Doyle - Renewed Love Blues
TTITLE21=Little Buddy Doyle - Bad In Mind Blues
TTITLE22=Little Buddy Doyle - Three-Sixty-Nine Blues
TTITLE23=Little Buddy Doyle - She's Got Good Dry Goods
TTITLE24=Little Buddy Doyle - Lost Baby Blues
TTITLE25=Little Buddy Doyle  - Sweet Man Blues
EXTD=YEAR: 2004
EXTT0=
EXTT1=
EXTT2=
EXTT3=
EXTT4=
EXTT5=
EXTT6=
EXTT7=
EXTT8=
EXTT9=
EXTT10=
EXTT11=
EXTT12=
EXTT13=
EXTT14=
EXTT15=
EXTT16=
EXTT17=
EXTT18=
EXTT19=
EXTT20=
EXTT21=
EXTT22=
EXTT23=
EXTT24=
EXTT25=
PLAYORDER=
